<?xml version="1.0" encoding="UTF-8" standalone="no"?>
<svg width="55px" height="55px" viewBox="0 0 55 55" version="1.1" xmlns="http://www.w3.org/2000/svg" xmlns:xlink="http://www.w3.org/1999/xlink">
    <!-- Generator: Sketch 3.8.3 (29802) - http://www.bohemiancoding.com/sketch -->
    <title>earth</title>
    <desc>Created with Sketch.</desc>
    <defs>
        <ellipse id="path-1" cx="27.4946984" cy="27.4669653" rx="27.4946984" ry="27.4669653"></ellipse>
        <mask id="mask-2" maskContentUnits="userSpaceOnUse" maskUnits="objectBoundingBox" x="0" y="0" width="54.9893968" height="54.9339306" fill="white">
            <use xlink:href="#path-1"></use>
        </mask>
        <mask id="mask-4" maskContentUnits="userSpaceOnUse" maskUnits="objectBoundingBox" x="0" y="0" width="54.9893968" height="54.9339306" fill="white">
            <use xlink:href="#path-1"></use>
        </mask>
    </defs>
    <g id="TNT2" stroke="none" stroke-width="1" fill="none" fill-rule="evenodd">
        <g id="inicio-copy" transform="translate(-570.000000, -1719.000000)">
            <g id="Group-4" transform="translate(84.000000, 1615.000000)">
                <g id="earth" transform="translate(486.000000, 104.000000)">
                    <mask id="mask-3" fill="white">
                        <use xlink:href="#path-1"></use>
                    </mask>
                    <g id="base" stroke="#238FD1" mask="url(#mask-2)" stroke-width="7">
                        <use mask="url(#mask-4)" xlink:href="#path-1"></use>
                    </g>
                    <path d="M43.839814,12.5876288 C39.0250689,11.1906083 36.7329438,7.91505802 33.4923822,11.6056478 C30.2518205,15.2962375 28.6073038,15.5911656 27.6746793,18.6622475 C26.7420547,21.7333295 25.0469828,26.7143033 27.6746793,28.8362058 C30.3023757,30.9581083 33.313172,33.9146831 34.9532058,32.8948925 C36.5932396,31.8751019 38.3789193,28.5773275 40.2301272,27.0667123 C42.081335,25.5560971 43.513653,30.9491604 44.8223662,33.8014336 C46.1310793,36.6537067 45.2807206,38.9462356 42.9122196,43.2914008 C40.5437187,47.636566 51.0465918,62.4140689 52.9328323,67.6146023 C54.8190729,72.8151357 66.1729627,77.2118624 66.1729627,77.2118624 L65.8629258,61.555491 C65.8629258,61.555491 77.9759321,48.8808985 71.1956454,34.9703387 C64.4153586,21.0597789 48.6545592,13.9846493 43.839814,12.5876288 Z M4.44624044,8.94134884 C7.034503,8.19870297 19.1146067,5.89658792 20.9772106,8.94134884 C22.8398145,11.9861098 16.0342387,20.9614991 12.4488857,22.0231114 C8.8635327,23.0847237 7.60156901,26.3927788 7.1199419,28.2846532 C6.6383148,30.1765276 16.8631707,39.5360845 15.3814409,41.7184703 C13.8997112,43.9008562 10.4750331,43.6644031 7.1199419,39.4846 C3.76485074,35.3047969 -10.1880157,40.8102748 -9.56289937,37.4171174 C-8.93778306,34.0239601 -3.27615501,15.5214174 -3.27615501,15.5214174 C-3.27615501,15.5214174 1.85797789,9.68399471 4.44624044,8.94134884 Z" id="details" stroke="#238FD1" stroke-width="2" stroke-linecap="round" mask="url(#mask-3)"></path>
                </g>
            </g>
        </g>
    </g>
</svg>