<?xml version="1.0" encoding="UTF-8" standalone="no"?>
<svg width="24px" height="19px" viewBox="0 0 24 19" version="1.1" xmlns="http://www.w3.org/2000/svg" xmlns:xlink="http://www.w3.org/1999/xlink">
    <!-- Generator: Sketch 3.8.2 (29753) - http://www.bohemiancoding.com/sketch -->
    <title>Fill 609 + Fill 610</title>
    <desc>Created with Sketch.</desc>
    <defs></defs>
    <g id="Pre-Diabetes" stroke="none" stroke-width="1" fill="none" fill-rule="evenodd">
        <g id="Detalle" transform="translate(-459.000000, -654.000000)" fill="#004D72">
            <g id="Group-3" transform="translate(448.000000, 639.000000)">
                <g id="Group-2" transform="translate(1.599569, 4.032258)">
                    <g id="Fill-609-+-Fill-610" transform="translate(9.597417, 11.612903)">
                        <path d="M4.01289876,9.16859083 L11.5140375,2.36179966 L19.7657953,9.16859083 L4.01289876,9.16859083 Z M10.4724652,16.2993209 L10.4724652,12.224618 L7.44170211,12.224618 L7.44170211,16.2993209 L5.42119336,16.2993209 L5.42119336,11.2059423 L18.5545003,11.2059423 L18.5545003,16.2993209 L10.4724652,16.2993209 Z M17.5442459,4.07521222 L18.5545003,4.07521222 L18.5545003,5.53803056 L17.5442459,4.70373514 L17.5442459,4.07521222 Z M23.2350088,9.39983022 L20.575009,7.20356537 L20.575009,3.0565365 C20.575009,2.4942275 20.122415,2.03786078 19.5647546,2.03786078 L16.5339915,2.03786078 C15.9823926,2.03786078 15.5368704,2.4860781 15.5267679,3.04023769 L12.1222106,0.231748727 C11.7362935,-0.0881154499 11.1776228,-0.0738539898 10.8068594,0.262308998 L0.704315676,9.43039049 C0.393157328,9.71256367 0.287080619,10.1587436 0.436598266,10.5519525 C0.587126168,10.9471986 0.961930542,11.2059423 1.38017585,11.2059423 L3.40068461,11.2059423 L3.40068461,17.3179966 C3.40068461,17.8813243 3.85327857,18.3366723 4.41093898,18.3366723 L19.5647546,18.3366723 C20.122415,18.3366723 20.575009,17.8813243 20.575009,17.3179966 L20.575009,11.2059423 L22.5955178,11.2059423 C23.0228554,11.2059423 23.4037213,10.9359932 23.5471774,10.5295416 C23.6906335,10.1251273 23.5663722,9.67181664 23.2350088,9.39983022 L23.2350088,9.39983022 Z" id="Fill-609"></path>
                    </g>
                </g>
            </g>
        </g>
    </g>
</svg>