<?xml version="1.0" encoding="UTF-8" standalone="no"?>
<svg width="55px" height="54px" viewBox="0 0 55 54" version="1.1" xmlns="http://www.w3.org/2000/svg" xmlns:xlink="http://www.w3.org/1999/xlink">
    <!-- Generator: Sketch 3.8.3 (29802) - http://www.bohemiancoding.com/sketch -->
    <title>map</title>
    <desc>Created with Sketch.</desc>
    <defs>
        <path d="M0,3.43242937 C0,1.53675097 1.40580809,0.628726054 3.14368097,1.40596297 L17.3456089,7.75755689 C18.2091056,8.14374249 19.6037688,8.1148168 20.4486301,7.69888006 L34.5472695,0.757927717 C35.3975241,0.339335797 36.7819633,0.311011774 37.649753,0.699250894 L51.846797,7.05084481 C53.5824069,7.82733672 54.9893968,10.0023901 54.9893968,11.8892371 L54.9893968,50.6911404 C54.9893968,52.5868188 53.5840722,53.4948437 51.846797,52.7176068 L37.649753,46.3660129 C36.7865533,45.9798273 35.3921309,46.008753 34.5472695,46.4246897 L20.4486301,53.3656421 C19.5983755,53.784234 18.2074274,53.809754 17.3402733,53.4219326 C17.3402733,53.4219326 9.60690847,49.9633041 5.74563688,48.2364098 C4.87124279,47.8453504 3.13949858,47.0708545 3.13949858,47.0708545 C1.40560139,46.2953956 0,44.1211797 0,42.2343326 L0,3.43242937 Z" id="path-1"></path>
        <mask id="mask-2" maskContentUnits="userSpaceOnUse" maskUnits="objectBoundingBox" x="0" y="0" width="54.9893968" height="53.2718214" fill="white">
            <use xlink:href="#path-1"></use>
        </mask>
    </defs>
    <g id="TNT2" stroke="none" stroke-width="1" fill="none" fill-rule="evenodd">
        <g id="inicio-copy" transform="translate(-233.000000, -1719.000000)" stroke="#238FD1">
            <g id="Group-4" transform="translate(84.000000, 1615.000000)">
                <g id="map" transform="translate(149.000000, 104.000000)">
                    <use id="base" mask="url(#mask-2)" stroke-width="7" xlink:href="#path-1"></use>
                    <path d="M18.9026052,10.9938501 L18.9026052,51.5865275" id="Line" stroke-width="2" stroke-linecap="round"></path>
                    <path d="M36.0867917,2.53704233 L36.0867917,43.1297197" id="Line-Copy" stroke-width="2" stroke-linecap="round"></path>
                </g>
            </g>
        </g>
    </g>
</svg>